<svg xmlns="http://www.w3.org/2000/svg" xmlns:xlink="http://www.w3.org/1999/xlink" width="800" zoomAndPan="magnify" viewBox="0 0 600 599.999999" height="800" preserveAspectRatio="xMidYMid meet" version="1.0"><defs><g/><clipPath id="c0e58b6742"><path d="M 0.304688 0 L 600 0 L 600 600 L 0.304688 600 Z M 0.304688 0 " clip-rule="nonzero"/></clipPath></defs><rect x="-60" width="720" fill="#ffffff" y="-60" height="719.999999" fill-opacity="1"/><rect x="-60" width="720" fill="#2c363f" y="-60" height="719.999999" fill-opacity="1"/><path fill="#603d24" d="M 0.304688 0 L 600.304688 0 L 600.304688 600 L 0.304688 600 Z M 0.304688 0 " fill-opacity="1" fill-rule="nonzero"/><g clip-path="url(#c0e58b6742)"><path fill="#2c363f" d="M 0.441406 0.140625 L 600.164062 0.140625 L 600.164062 599.859375 L 0.441406 599.859375 Z M 0.441406 0.140625 " fill-opacity="1" fill-rule="nonzero"/></g><path fill="#e0e0e2" d="M 14.0625 92.558594 C 8.796875 56.242188 36.960938 48.242188 58.183594 26.355469 C 70.996094 10.914062 82.367188 1.988281 103.136719 9.617188 C 128.011719 20.03125 140.535156 50.15625 147.875 74.386719 C 149.957031 108.929688 144.476562 153.152344 121.484375 180.324219 C 108.222656 191.617188 70.859375 185.328125 55.210938 179.722656 C 25.582031 168.71875 13.328125 121.257812 14.0625 92.558594 Z M 446.890625 307.003906 C 457.082031 315.492188 470.605469 318.085938 483.453125 319.476562 C 501.710938 323.167969 518.722656 313.757812 533.179688 303.675781 C 546.792969 293.714844 563.046875 284.507812 570.054688 268.449219 C 575.644531 254.253906 578.664062 239.175781 580.921875 224.117188 C 583.347656 209.992188 584.65625 194.621094 574.636719 182.90625 C 561.882812 165.917969 538.722656 159.148438 518.199219 160.042969 C 509.800781 161.945312 502.28125 166.539062 494.128906 169.273438 C 475.410156 178.367188 453.449219 185.121094 439.621094 201.324219 C 428.050781 219.753906 425.425781 246.203125 429.59375 267.179688 C 427.730469 282.300781 435.96875 297.035156 446.890625 307.003906 Z M 442.71875 423.972656 C 451.101562 408.097656 451.847656 390.179688 450.941406 372.628906 C 450.878906 368.195312 450.917969 363.738281 448.546875 359.8125 C 446.023438 355.644531 441.902344 352.730469 437.855469 350.105469 C 423.390625 332.863281 404.089844 319.683594 381.851562 315.011719 C 353.515625 307.445312 343.703125 317.410156 328.21875 339.304688 C 294.261719 382.28125 251.085938 359.515625 206.53125 370.847656 C 187.640625 376.105469 171.585938 387.273438 156.152344 398.941406 C 133.710938 413.042969 116.105469 427.816406 117.632812 456.644531 C 116.542969 472.425781 118.597656 488.660156 128.550781 501.507812 C 140.46875 519.710938 153.128906 538.082031 171.609375 550.226562 C 192.496094 565.453125 220 559.71875 244.242188 560.605469 C 278.617188 563.320312 288.855469 523.164062 312.914062 507 C 344.738281 482.730469 388.980469 483.207031 420.175781 458.335938 C 430.785156 449.308594 436.089844 435.90625 442.71875 423.972656 Z M 149.992188 347.019531 C 160.339844 344.578125 169.386719 338.933594 179.289062 335.316406 C 210.710938 328.050781 233.195312 306.484375 228.34375 272.4375 C 228.226562 269.847656 227.527344 266.875 226.375 263.667969 C 220.457031 247.027344 202.5625 224.214844 191.039062 217.46875 C 180.367188 206.070312 162.644531 202.726562 148.179688 208.011719 C 138.652344 212.28125 131.878906 220.382812 124.148438 227.125 C 110.710938 239.824219 91.742188 251.714844 76.558594 265.796875 C 64.8125 276.707031 55.320312 288.910156 52.410156 303.832031 C 47.003906 327.21875 67.003906 344.050781 88.34375 347.535156 C 108.558594 350.105469 129.871094 350.054688 149.992188 347.019531 Z M 170.984375 92.65625 C 170.972656 104.769531 170.871094 117.222656 175.5625 128.625 C 178.492188 136.082031 182.277344 143.121094 185.503906 150.445312 C 190.359375 161.90625 196.066406 173.527344 205.699219 181.761719 C 215.429688 189.480469 227.113281 194.402344 236.710938 202.351562 C 244.671875 208.839844 252.429688 215.628906 260.6875 221.742188 C 264.4375 224.519531 268.300781 227.160156 272.320312 229.566406 C 301.335938 248.273438 350.492188 242.96875 377.867188 220.078125 C 381.167969 217.3125 384.167969 214.296875 386.761719 211.023438 C 387.035156 210.734375 387.292969 210.429688 387.554688 210.125 C 402.734375 197.554688 417.179688 181.890625 424.507812 169.671875 C 429.886719 158.273438 430.023438 144.996094 427.410156 132.421875 C 428.160156 121.125 426.765625 109.558594 419.503906 100.421875 C 401.105469 74.023438 366.875 67.691406 336.660156 68.996094 C 307.996094 70.082031 301.40625 49.8125 281.558594 34.835938 C 267.339844 21.792969 250.789062 10.074219 231.339844 6.917969 C 211.8125 3.980469 191.390625 6.761719 179.625 24.410156 C 166.914062 44.527344 172 70.054688 170.984375 92.65625 Z M 58.042969 404.320312 C 56.160156 381.253906 44.457031 359.640625 29.703125 342.160156 C 23.351562 334.628906 15.554688 327.550781 5.359375 326.175781 C 3.652344 326.082031 1.914062 325.960938 0.164062 325.847656 L 0.164062 500.378906 C 6.078125 500.78125 12.113281 500.523438 17.898438 500.480469 C 34.519531 501.082031 46.867188 500.839844 55.695312 484.636719 C 66.375 469.0625 74.367188 451.15625 70.570312 431.90625 C 68.652344 421.824219 59.570312 414.453125 58.042969 404.320312 Z M 556.726562 524.402344 C 551.285156 520.046875 545.753906 515.910156 541.230469 510.574219 C 527.484375 497.765625 509.425781 490.179688 491.429688 485.4375 C 477.015625 482.222656 461.59375 480.875 447.03125 483.636719 C 435.921875 486.511719 429.5 496.75 422.402344 504.9375 C 398.820312 526.359375 384.214844 542.78125 387.183594 576.621094 C 386.796875 586.722656 387.832031 594.230469 389.925781 600 L 587.289062 600 C 586.953125 595.402344 586.375 590.8125 585.535156 586.230469 C 582.121094 563.085938 576.171875 539.515625 556.726562 524.402344 Z M 443.519531 38.957031 C 449.917969 45.808594 451.460938 55.484375 455.484375 63.695312 C 456.90625 67.050781 458.53125 70.367188 460.382812 73.53125 C 464.882812 81.171875 470.773438 87.976562 478.492188 92.542969 C 488.945312 98.53125 500.859375 101.082031 511.773438 106.085938 C 534.84375 115.972656 556.003906 112.265625 567.070312 88.140625 C 569.78125 82.863281 572.285156 77.4375 574.546875 71.910156 C 583.875 49.128906 589.035156 24.535156 587.3125 0 L 390.058594 0 C 398.59375 22.707031 423.921875 17.964844 443.519531 38.957031 Z M 575.507812 327.789062 C 567.734375 332.265625 565.664062 342.109375 562.015625 349.714844 C 554.925781 365.707031 547.367188 382.746094 549.035156 401.195312 C 550.238281 421.054688 547.101562 441.679688 552.71875 460.984375 C 558.234375 474.414062 568.699219 485.957031 580.320312 494.507812 C 586.414062 498.445312 593.339844 499.890625 600.441406 500.378906 L 600.441406 325.847656 C 592.058594 325.304688 583.328125 324.878906 575.507812 327.789062 Z M 575.507812 327.789062 " fill-opacity="1" fill-rule="nonzero"/><g fill="#59558b" fill-opacity="1"><g transform="translate(74.987716, 554.611214)"><g><path d="M 181.191406 -487.414062 C 101.824219 -487.414062 14.226562 -476.183594 9.734375 -375.105469 C 2.246094 -219.375 247.078125 -250.820312 255.3125 -100.328125 C 253.066406 -33.691406 207.394531 -20.964844 149.742188 -19.464844 L 147.496094 -27.703125 C 174.449219 -42.675781 192.421875 -63.640625 191.671875 -107.066406 C 190.175781 -234.347656 20.964844 -211.886719 20.964844 -211.886719 L 21.710938 -0.75 L 302.480469 -0.75 C 390.832031 -0.75 427.519531 -55.40625 436.503906 -109.3125 C 446.984375 -172.203125 414.789062 -218.625 345.90625 -256.808594 C 294.996094 -285.261719 200.65625 -321.199219 202.902344 -392.328125 C 204.398438 -454.472656 264.296875 -473.9375 318.203125 -470.941406 L 319.703125 -462.707031 C 293.496094 -448.480469 273.28125 -429.765625 274.03125 -387.085938 C 275.527344 -266.542969 435.753906 -288.257812 435.753906 -288.257812 L 435.003906 -487.414062 Z M 181.191406 -487.414062 "/></g></g></g></svg>